# xmcd
#
# Track frame offsets: 
#        150
#        18574
#        43163
#        66107
#        88001
#        109977
#        128677
#        153380
#        176543
#        202472
#        229166
#        248389
#        270678
#
# Disc length: 3912 seconds
#
# Revision: 4
# Processed by: cddbd v1.4PL0 Copyright (c) Steve Scherf et al.
# Submitted via: ExactAudioCopy v0.90a11
#
DISCID=b50f460d
DTITLE=Bernard Allison - Times Are Changing
DYEAR=1900
DGENRE=
TTITLE0=I Can't Get You Out of My Mind
TTITLE1=Bad Love
TTITLE2=Check Yourself
TTITLE3=Midnight Creeper
TTITLE4=Don't Be Confused (acoustic)
TTITLE5=Tell Me
TTITLE6=The Way Love Was Meant To Be
TTITLE7=In The Morning
TTITLE8=New Girl In Town
TTITLE9=If You Want Me To Stay
TTITLE10=Life Is A Bitch
TTITLE11=Real Mother 'Fa 'Ya
TTITLE12=Don't Be Confused
EXTD=Ruf Records 1998
EXTT0=
EXTT1=
EXTT2=
EXTT3=
EXTT4=
EXTT5=
EXTT6=
EXTT7=
EXTT8=
EXTT9=
EXTT10=
EXTT11=
EXTT12=
PLAYORDER=
